<svg xmlns="http://www.w3.org/2000/svg" width="270" height="50" viewBox="0 0 270 50"><g transform="translate(-17 -234)"><g transform="translate(17 234)"><circle cx="5" cy="5" r="5" fill="rgba(255,255,255,0.32)"/></g><g transform="translate(37 234)"><circle cx="5" cy="5" r="5" fill="rgba(255,255,255,0.32)"/></g><g transform="translate(57 234)"><circle cx="5" cy="5" r="5" fill="rgba(255,255,255,0.32)"/></g><g transform="translate(77 234)"><circle cx="5" cy="5" r="5" fill="rgba(255,255,255,0.32)"/></g><g transform="translate(97 234)"><circle cx="5" cy="5" r="5" fill="rgba(255,255,255,0.32)"/></g><g transform="translate(117 234)"><circle cx="5" cy="5" r="5" fill="rgba(255,255,255,0.32)"/></g><g transform="translate(137 234)"><circle cx="5" cy="5" r="5" fill="rgba(255,255,255,0.32)"/></g><g transform="translate(157 234)"><circle cx="5" cy="5" r="5" fill="rgba(255,255,255,0.32)"/></g><g transform="translate(177 234)"><circle cx="5" cy="5" r="5" fill="rgba(255,255,255,0.32)"/></g><g transform="translate(197 234)"><circle cx="5" cy="5" r="5" fill="rgba(255,255,255,0.32)"/></g><g transform="translate(217 234)"><circle cx="5" cy="5" r="5" fill="rgba(255,255,255,0.32)"/></g><g transform="translate(237 234)"><circle cx="5" cy="5" r="5" fill="rgba(255,255,255,0.32)"/></g><g transform="translate(257 234)"><circle cx="5" cy="5" r="5" fill="rgba(255,255,255,0.32)"/></g><g transform="translate(277 234)"><circle cx="5" cy="5" r="5" fill="rgba(255,255,255,0.32)"/></g><g transform="translate(17 254)"><circle cx="5" cy="5" r="5" fill="rgba(255,255,255,0.32)"/></g><g transform="translate(37 254)"><circle cx="5" cy="5" r="5" fill="rgba(255,255,255,0.32)"/></g><g transform="translate(57 254)"><circle cx="5" cy="5" r="5" fill="rgba(255,255,255,0.32)"/></g><g transform="translate(77 254)"><circle cx="5" cy="5" r="5" fill="rgba(255,255,255,0.32)"/></g><g transform="translate(97 254)"><circle cx="5" cy="5" r="5" fill="rgba(255,255,255,0.32)"/></g><g transform="translate(117 254)"><circle cx="5" cy="5" r="5" fill="rgba(255,255,255,0.32)"/></g><g transform="translate(137 254)"><circle cx="5" cy="5" r="5" fill="rgba(255,255,255,0.32)"/></g><g transform="translate(157 254)"><circle cx="5" cy="5" r="5" fill="rgba(255,255,255,0.32)"/></g><g transform="translate(177 254)"><circle cx="5" cy="5" r="5" fill="rgba(255,255,255,0.32)"/></g><g transform="translate(197 254)"><circle cx="5" cy="5" r="5" fill="rgba(255,255,255,0.32)"/></g><g transform="translate(217 254)"><circle cx="5" cy="5" r="5" fill="rgba(255,255,255,0.32)"/></g><g transform="translate(237 254)"><circle cx="5" cy="5" r="5" fill="rgba(255,255,255,0.32)"/></g><g transform="translate(257 254)"><circle cx="5" cy="5" r="5" fill="rgba(255,255,255,0.32)"/></g><g transform="translate(277 254)"><circle cx="5" cy="5" r="5" fill="rgba(255,255,255,0.32)"/></g><g transform="translate(17 274)"><circle cx="5" cy="5" r="5" fill="rgba(255,255,255,0.32)"/></g><g transform="translate(37 274)"><circle cx="5" cy="5" r="5" fill="rgba(255,255,255,0.32)"/></g><g transform="translate(57 274)"><circle cx="5" cy="5" r="5" fill="rgba(255,255,255,0.32)"/></g><g transform="translate(77 274)"><circle cx="5" cy="5" r="5" fill="rgba(255,255,255,0.32)"/></g><g transform="translate(97 274)"><circle cx="5" cy="5" r="5" fill="rgba(255,255,255,0.32)"/></g><g transform="translate(117 274)"><circle cx="5" cy="5" r="5" fill="rgba(255,255,255,0.32)"/></g><g transform="translate(137 274)"><circle cx="5" cy="5" r="5" fill="rgba(255,255,255,0.32)"/></g><g transform="translate(157 274)"><circle cx="5" cy="5" r="5" fill="rgba(255,255,255,0.32)"/></g><g transform="translate(177 274)"><circle cx="5" cy="5" r="5" fill="rgba(255,255,255,0.32)"/></g><g transform="translate(197 274)"><circle cx="5" cy="5" r="5" fill="rgba(255,255,255,0.32)"/></g><g transform="translate(217 274)"><circle cx="5" cy="5" r="5" fill="rgba(255,255,255,0.32)"/></g><g transform="translate(237 274)"><circle cx="5" cy="5" r="5" fill="rgba(255,255,255,0.32)"/></g><g transform="translate(257 274)"><circle cx="5" cy="5" r="5" fill="rgba(255,255,255,0.32)"/></g><g transform="translate(277 274)"><circle cx="5" cy="5" r="5" fill="rgba(255,255,255,0.32)"/></g></g></svg>
